# xmcd
# Copyright (C) 1995-1998 Ti Kan
#
# Track frame offsets:
#       150
#       18460
#       38415
#       58010
#       79238
#       96863
#       119208
#       137762
#       157878
#       180103
#       200308
#
# Disc length: 2890 seconds
#
# Revision: 1
# Processed by: cddbd v1.5.2PL0 Copyright (c) Steve Scherf et al.
# Submitted via: CD-Import v1.0
#
DISCID=870b480b
DTITLE=Pavlos Pavlidis and B-Movies - Alli Mia Mera
DYEAR=2006
DGENRE=
TTITLE0=I Mikri Mas Politeia
TTITLE1=Den Eimai Apo'do
TTITLE2=Alli Mia Mera
TTITLE3=Oso Mikraino
TTITLE4=Koralenios Vythos
TTITLE5=Theristes
TTITLE6=Super Star
TTITLE7=Stoxeiomeno Spiti
TTITLE8=Aeriko
TTITLE9=Oi Aperantoi Dromoi
TTITLE10=Synnetha
EXTD=
EXTT0=
EXTT1=
EXTT2=
EXTT3=
EXTT4=
EXTT5=
EXTT6=
EXTT7=
EXTT8=
EXTT9=
EXTT10=
PLAYORDER=
